<svg width="123" height="119" viewBox="0 0 123 119" fill="none" xmlns="http://www.w3.org/2000/svg">
<path d="M91.0898 31.7893C86.4633 29.7013 80.7909 30.669 77.1173 34.1454C75.8964 28.8303 73.3989 23.0314 67.6893 21.4086C61.9053 19.7671 56.7614 23.6306 52.6783 27.3341C52.5778 18.591 50.9811 9.09231 43.7268 3.35291C37.8683 -1.28104 28.392 -1.5118 23.9181 5.19905C23.8585 5.28837 24.0558 5.35165 24.1116 5.27349C26.3709 1.97575 30.1934 0.252446 34.1425 0.215226C38.3112 0.174283 42.1412 2.18791 44.9737 5.1581C50.862 11.3255 51.8483 20.1431 51.7218 28.2832C51.7143 28.674 52.3136 28.8638 52.5853 28.6107C56.445 25.0562 61.3432 20.5823 67.0789 21.9073C72.9821 23.2733 75.3493 29.6678 76.4734 34.9233C76.5292 35.1876 77.0131 35.3253 77.2029 35.1206C80.6904 31.3166 86.1507 30.0474 90.941 32.0276C91.1382 32.1094 91.3169 31.8898 91.0861 31.7856L91.0898 31.7893Z" fill="#005399"/>
<path d="M88.514 77.3996L94.2832 71.1875L57.8406 38.0427L49.3543 48.2746L33.2937 31.8083L26.8657 39.7549L0 14.1918L4.31013 9.66211L26.2665 30.5577L32.8545 22.4064L48.9784 38.9397L57.2153 29.013L98.5375 66.6057L104.091 60.6244L119.727 89.6675L88.514 77.3996Z" fill="#005399"/>
<path d="M2.11035 35.3589H16.1425L18.733 36.7323V118.506H4.7009L2.11035 117.132V35.3589Z" fill="#005399"/>
<path d="M43.4733 65.34V118.506H29.4412L26.8469 117.132V63.9666H40.879L43.4733 65.34Z" fill="#005399"/>
<path d="M68.2099 75.3825V118.506H54.1778L51.5873 117.133V74.009H65.6194L68.2099 75.3825Z" fill="#005399"/>
<path d="M92.9503 85.5917V118.506H78.9182L76.3276 117.132V84.2183H90.356L92.9503 85.5917Z" fill="#005399"/>
<path d="M117.688 101.433V118.506H103.659L101.065 117.133V100.06H115.097L117.688 101.433Z" fill="#005399"/>
<path fill-rule="evenodd" clip-rule="evenodd" d="M106 54C115.389 54 123 46.3888 123 37C123 27.6112 115.389 20 106 20C96.6112 20 89 27.6112 89 37C89 46.3888 96.6112 54 106 54ZM108.362 31.0608C107.029 30.5211 105.857 30.4206 104.844 30.763V30.7705C103.832 31.1129 103.151 31.6898 102.808 32.4975C102.425 33.402 102.466 34.2506 102.931 35.0471C103.396 35.8436 104.301 36.6476 105.641 37.4627L103.791 41.8138C102.704 41.2741 102.082 40.619 101.926 39.8448C101.837 39.4131 101.919 38.8212 102.175 38.0694L100.422 37.3399C100.035 38.2555 99.9125 39.0595 100.061 39.7555C100.326 41.0359 101.398 42.1264 103.277 43.0272L102.618 44.5755L103.56 44.9663L104.219 43.418C105.458 43.8088 106.467 43.9726 107.241 43.9056C108.637 43.7865 109.634 43.016 110.237 41.6016C110.654 40.6227 110.52 39.6959 109.843 38.825C109.426 38.2927 108.522 37.5334 107.137 36.5508L108.79 32.6613C109.687 33.067 110.234 33.6253 110.42 34.3362C110.52 34.7196 110.509 35.1253 110.383 35.5496L112.117 36.2717C112.467 35.356 112.407 34.4739 111.938 33.6327C111.469 32.7915 110.595 32.0583 109.311 31.4367L109.754 30.3908L108.812 30L108.362 31.0608ZM106.262 36.0037C105.57 35.5793 105.071 35.129 104.762 34.6488H104.766C104.457 34.1687 104.416 33.6662 104.639 33.1377C104.826 32.7022 105.187 32.3598 105.726 32.1141C106.262 31.8685 106.977 31.9169 107.859 32.2518L106.262 36.0037ZM108.287 41.248C108.108 41.6649 107.84 41.9887 107.479 42.2158H107.476C106.783 42.6624 105.86 42.6698 104.714 42.2418L106.5 38.0433C107.249 38.5681 107.755 39.0074 108.019 39.3535C108.481 39.949 108.57 40.5818 108.287 41.248Z" fill="#005399"/>
</svg>
